<svg id="logo" xmlns="http://www.w3.org/2000/svg" width="89.788" height="115.65" viewBox="0 0 89.788 115.65">
  <path id="Path_5" data-name="Path 5" d="M126.788,70.749v26.48a44.707,44.707,0,0,1-3.228,16.346c-.252.627-.521,1.249-.8,1.861-.038.074-.071.154-.113.225q-.752,1.629-1.637,3.19c-.133.24-.269.48-.414.72a45.165,45.165,0,0,1-6.976,9c-.977.977-2,1.913-3.066,2.787a44.686,44.686,0,0,1-9.841,6.219q-1.816.847-3.723,1.523c-1.238.45-2.512.835-3.8,1.172a44.636,44.636,0,0,1-8.959,1.374H84.22c-.77.04-1.548.062-2.329.062s-1.559-.021-2.329-.062h-.012a44.232,44.232,0,0,1-8.425-1.243q-2-.484-3.922-1.158a42.013,42.013,0,0,1-4.137-1.669,44.686,44.686,0,0,1-9.841-6.219c-1.062-.875-2.089-1.81-3.066-2.787a45.166,45.166,0,0,1-6.976-9c-.189-.32-.372-.637-.55-.96-.536-.964-1.039-1.944-1.5-2.95-.038-.074-.071-.154-.113-.225-.276-.612-.545-1.238-.8-1.861A44.707,44.707,0,0,1,37,97.229V93.092H67.205v7.657a14.5,14.5,0,0,0,3.437,9.387h0a14.939,14.939,0,0,0,11.252,5.3H82.1a14.952,14.952,0,0,0,11.589-5.463A14.488,14.488,0,0,0,97,100.747V70.954A14.8,14.8,0,0,0,82.1,56.265h-.206A18.747,18.747,0,0,1,70.12,52.128,18,18,0,0,1,68,50.14h0c-.272-.3-.539-.61-.788-.927A18.754,18.754,0,0,1,63.068,37.44V26.06H86.2a44.184,44.184,0,0,1,6.559,1.125A42.83,42.83,0,0,1,97,28.463c.6.216,1.2.45,1.8.686.648.261,1.294.542,1.927.838.154.065.307.138.458.213.092.042.185.083.276.134,1.27.612,2.507,1.287,3.705,2.015a45.062,45.062,0,0,1,15.291,15.4c.722,1.2,1.391,2.445,1.995,3.72.068.145.136.285.2.43v.225h.113q.915,2.025,1.643,4.137a44.915,44.915,0,0,1,2.382,14.486Zm-4.137,26.069V70.954a40.554,40.554,0,0,0-2.726-14.689c-.285-.748-.6-1.485-.926-2.208-.3-.654-.613-1.3-.944-1.93q-.4-.758-.83-1.5a40.892,40.892,0,0,0-15-15.005c-.494-.285-.995-.563-1.5-.824-.065-.033-.13-.071-.2-.1-.563-.293-1.142-.574-1.726-.84s-1.193-.523-1.8-.763c-.252-.1-.506-.2-.761-.3a40.634,40.634,0,0,0-14.338-2.6H67.205V37.44A14.791,14.791,0,0,0,82.018,52.128H82.1a18.8,18.8,0,0,1,11.567,4.137A18.172,18.172,0,0,1,96,58.5c.349.394.684.8.995,1.219a18.73,18.73,0,0,1,3.723,11.238v29.794A18.814,18.814,0,0,1,97,111.989a18.3,18.3,0,0,1-1.205,1.456h0a18.818,18.818,0,0,1-21.8,4.388A17.988,17.988,0,0,1,71.73,116.6a18.885,18.885,0,0,1-3.73-3.15h0c-.272-.3-.539-.606-.788-.926a18.777,18.777,0,0,1-4.137-11.77v-3.52H41.137v3.721a40.8,40.8,0,0,0,3.375,12.625c.281.627.577,1.249.9,1.861A41.054,41.054,0,0,0,53.1,125.9a39.453,39.453,0,0,0,3.122,2.779,40.324,40.324,0,0,0,6.854,4.466,41.034,41.034,0,0,0,4.137,1.85c.281.113.563.214.853.314a41,41,0,0,0,28.179-.26c.254-.095.509-.2.761-.3a39.59,39.59,0,0,0,3.723-1.716,40.73,40.73,0,0,0,6.751-4.436,39.984,39.984,0,0,0,3.11-2.79,41.2,41.2,0,0,0,5.15-6.232,40.66,40.66,0,0,0,2.438-4.138c.316-.612.613-1.238.893-1.861a39.8,39.8,0,0,0,1.948-5.28,40.684,40.684,0,0,0,1.634-11.066C122.651,97.093,122.651,96.954,122.651,96.818Z" transform="translate(-37 -26.06)" fill="#fff"/>
  <path id="Path_6" data-name="Path 6" d="M287.506,261.877H272.817V298.7H268.68V257.74h7.053A18.747,18.747,0,0,0,287.506,261.877Z" transform="translate(-242.612 -231.672)" fill="#fff"/>
  <path id="Path_7" data-name="Path 7" d="M63.068,26.06V30.2H41.137V51.9c-.038.073-.071.153-.113.225h.113V93.092H37V26.06Z" transform="translate(-37 -26.06)" fill="#fff"/>
</svg>
