<svg xmlns="http://www.w3.org/2000/svg" width="38.883" height="50.083" viewBox="0 0 38.883 50.083">
  <g id="logoBlack" transform="translate(-37 -26.06)">
    <path id="Path_5" data-name="Path 5" d="M75.883,45.413V56.88a19.361,19.361,0,0,1-1.4,7.079c-.109.271-.226.541-.345.806-.017.032-.031.067-.049.1q-.325.706-.709,1.381c-.057.1-.116.208-.179.312a19.559,19.559,0,0,1-3.021,3.9c-.423.423-.868.828-1.328,1.207a19.351,19.351,0,0,1-4.262,2.693q-.786.367-1.612.66c-.536.195-1.088.362-1.647.508a19.328,19.328,0,0,1-3.88.595h-.005c-.333.018-.67.027-1.009.027s-.675-.009-1.009-.027h-.005a19.156,19.156,0,0,1-3.649-.538q-.865-.21-1.7-.5a18.194,18.194,0,0,1-1.792-.723,19.351,19.351,0,0,1-4.262-2.693c-.46-.379-.9-.784-1.328-1.207a19.56,19.56,0,0,1-3.021-3.9c-.082-.138-.161-.276-.238-.416-.232-.418-.45-.842-.65-1.278-.017-.032-.031-.067-.049-.1-.119-.265-.236-.536-.345-.806A19.361,19.361,0,0,1,37,56.88V55.088H50.08V58.4a6.278,6.278,0,0,0,1.489,4.065h0a6.469,6.469,0,0,0,4.873,2.3h.09A6.475,6.475,0,0,0,61.55,62.4a6.274,6.274,0,0,0,1.432-4V45.5a6.407,6.407,0,0,0-6.451-6.361h-.089a8.119,8.119,0,0,1-5.1-1.792,7.793,7.793,0,0,1-.919-.861h0c-.118-.13-.233-.264-.341-.4a8.122,8.122,0,0,1-1.794-5.1V26.06H58.306a19.134,19.134,0,0,1,2.84.487,18.548,18.548,0,0,1,1.835.554c.261.094.521.195.78.3.281.113.56.235.835.363.067.028.133.06.2.092.04.018.08.036.119.058.55.265,1.086.557,1.6.873a19.514,19.514,0,0,1,6.622,6.67c.313.521.6,1.059.864,1.611.029.063.059.123.087.186v.1h.049q.4.877.711,1.792a19.451,19.451,0,0,1,1.032,6.273ZM74.091,56.7V45.5a17.562,17.562,0,0,0-1.181-6.361c-.123-.324-.258-.643-.4-.956-.128-.283-.266-.561-.409-.836q-.172-.328-.36-.65a17.708,17.708,0,0,0-6.5-6.5c-.214-.123-.431-.244-.651-.357-.028-.014-.057-.031-.087-.045-.244-.127-.495-.249-.747-.364s-.516-.227-.78-.33c-.109-.044-.219-.087-.329-.128a17.6,17.6,0,0,0-6.209-1.126H50.08v3.136A6.405,6.405,0,0,0,56.5,37.349h.036A8.141,8.141,0,0,1,61.54,39.14a7.869,7.869,0,0,1,1.011.967c.151.171.3.346.431.528A8.111,8.111,0,0,1,64.594,45.5V58.4a8.147,8.147,0,0,1-1.612,4.868,7.925,7.925,0,0,1-.522.631h0a8.149,8.149,0,0,1-9.44,1.9,7.79,7.79,0,0,1-.98-.536A8.178,8.178,0,0,1,50.425,63.9h0c-.118-.128-.233-.263-.341-.4a8.131,8.131,0,0,1-1.792-5.1V56.88h-9.5v1.611a17.669,17.669,0,0,0,1.462,5.468c.122.271.25.541.39.806A17.779,17.779,0,0,0,43.97,69.3a17.085,17.085,0,0,0,1.352,1.2,17.463,17.463,0,0,0,2.968,1.934,17.77,17.77,0,0,0,1.792.8c.122.049.244.093.369.136a17.757,17.757,0,0,0,12.2-.113c.11-.041.22-.085.329-.13a17.145,17.145,0,0,0,1.612-.743,17.638,17.638,0,0,0,2.924-1.921,17.315,17.315,0,0,0,1.347-1.208,17.84,17.84,0,0,0,2.23-2.7,17.609,17.609,0,0,0,1.056-1.792c.137-.265.266-.536.387-.806a17.235,17.235,0,0,0,.843-2.287,17.619,17.619,0,0,0,.708-4.792C74.091,56.821,74.091,56.761,74.091,56.7Z" transform="translate(0 0)"/>
    <path id="Path_6" data-name="Path 6" d="M276.833,259.532h-6.361v15.948H268.68V257.74h3.054A8.118,8.118,0,0,0,276.833,259.532Z" transform="translate(-220.391 -220.391)"/>
    <path id="Path_7" data-name="Path 7" d="M48.289,26.06v1.792h-9.5v9.4c-.017.032-.031.066-.049.1h.049v17.74H37V26.06Z" transform="translate(0 0)"/>
  </g>
</svg>
